<svg xmlns="http://www.w3.org/2000/svg" viewBox="0 0 512 512">
  <defs>
    <radialGradient id="bg" cx="50%" cy="40%" r="75%">
      <stop offset="0%" stop-color="#2e63a4"/>
      <stop offset="100%" stop-color="#0c2338"/>
    </radialGradient>
    <linearGradient id="straw" x1="0" y1="0" x2="0" y2="1">
      <stop offset="0%" stop-color="#ffe066"/>
      <stop offset="100%" stop-color="#e0a82e"/>
    </linearGradient>
  </defs>
  <rect width="512" height="512" rx="110" fill="url(#bg)"/>
  <!-- wheel -->
  <g transform="translate(256 276)">
    <circle r="190" fill="#123252" stroke="#2e63a4" stroke-width="10"/>
    <g>
      <path d="M0 0 L0 -182 A182 182 0 0 1 158 -91 Z" fill="#60bff5"/>
      <path d="M0 0 L158 -91 A182 182 0 0 1 158 91 Z" fill="#ffce00"/>
      <path d="M0 0 L158 91 A182 182 0 0 1 0 182 Z" fill="#d70000"/>
      <path d="M0 0 L0 182 A182 182 0 0 1 -158 91 Z" fill="#2e63a4"/>
      <path d="M0 0 L-158 91 A182 182 0 0 1 -158 -91 Z" fill="#c9a200"/>
      <path d="M0 0 L-158 -91 A182 182 0 0 1 0 -182 Z" fill="#a30000"/>
    </g>
    <circle r="86" fill="#123252" stroke="#2e63a4" stroke-width="8"/>
  </g>
  <!-- straw hat in hub -->
  <g transform="translate(256 276)">
    <ellipse cx="0" cy="14" rx="74" ry="18" fill="url(#straw)" stroke="#af6528" stroke-width="4"/>
    <path d="M-40 14 Q-42 -30 0 -34 Q42 -30 40 14 Z" fill="url(#straw)"/>
    <g stroke="#af6528" stroke-width="3" fill="none" opacity="0.7">
      <path d="M-34 2 q34 -10 68 0"/>
      <path d="M-33 -10 q33 -10 66 0"/>
      <path d="M-30 -20 q30 -8 60 0"/>
    </g>
    <path d="M-42 8 Q0 22 42 8 L38 -6 Q0 8 -38 -6 Z" fill="#d70000"/>
  </g>
  <!-- pointer -->
  <path d="M256 52 l30 46 h-60 z" fill="#eaf4ff" transform="rotate(180 256 75)"/>
</svg>
